<svg xmlns="http://www.w3.org/2000/svg" xmlns:xlink="http://www.w3.org/1999/xlink" width="92" height="20"><linearGradient id="b" x2="0" y2="100%"><stop offset="0" stop-color="#bbb" stop-opacity=".1"/><stop offset="1" stop-opacity=".1"/></linearGradient><clipPath id="a"><rect width="92" height="20" rx="3" fill="#fff"/></clipPath><g clip-path="url(#a)"><path fill="#555" d="M0 0h74v20H0z"/><path fill="#da322c" d="M74 0h18v20H74z"/><path fill="url(#b)" d="M0 0h92v20H0z"/></g><g fill="#fff" text-anchor="middle" font-family="DejaVu Sans,Verdana,Geneva,sans-serif" font-size="110"><text x="380" y="150" fill="#010101" fill-opacity=".3" transform="scale(.1)" textLength="640">open source</text><text x="380" y="140" transform="scale(.1)" textLength="640">open source</text><path fill="#010101" fill-opacity=".3" d="M78,7s1-1,4-1,4,1,4,1v4c0,4-4,5-4,5s-4-1-4-5V6Z"/><path d="M78,6s1-1,4-1,4,1,4,1v4c0,4-4,5-4,5s-4-1-4-5V6Z"/></g> </svg>